<svg xmlns="http://www.w3.org/2000/svg" version="1.1" xmlns:xlink="http://www.w3.org/1999/xlink" xmlns:svgjs="http://svgjs.com/svgjs" width="1000" height="1000"><rect width="1000" height="1000" rx="200" ry="200" fill="#ffffff"></rect><g transform="matrix(37.5,0,0,37.5,50,50)"><svg xmlns="http://www.w3.org/2000/svg" version="1.1" xmlns:xlink="http://www.w3.org/1999/xlink" xmlns:svgjs="http://svgjs.com/svgjs" width="24" height="24"><svg width="24" height="24" viewBox="0 0 24 24" fill="none" xmlns="http://www.w3.org/2000/svg">
<path d="M20.7482 0H3.25152C1.4556 0 0 1.45584 0 3.25176V20.7485C0 22.5444 1.4556 24 3.25152 24H20.7482C22.5442 24 24 22.5444 24 20.7485V3.25176C24 1.45584 22.5442 0 20.7482 0ZM7.62648 19.7376C5.75064 19.7534 4.25136 18.2772 4.24224 16.4057C4.23336 14.5714 5.72616 13.0766 7.57344 13.0709C9.4248 13.0651 10.9226 14.5411 10.9296 16.3778C10.9366 18.233 9.4728 19.722 7.62648 19.7376ZM16.4546 19.7376C14.5788 19.7534 13.0795 18.2772 13.0702 16.4057V16.3896C13.0702 15.7951 13.2286 15.2374 13.5048 14.7545C13.5816 14.6201 13.6675 14.4914 13.7618 14.3698C14.136 13.8096 14.8102 12.7999 15.031 12.4656C15.5827 11.6309 15.4884 10.9303 14.1962 10.9303H11.8478L11.8466 10.926C10.0625 10.8425 8.66496 9.40488 8.65632 7.59816C8.6472 5.76384 10.1402 4.26936 11.9875 4.2636C13.3848 4.25904 14.5805 5.09928 15.0859 6.3012L19.404 14.9011H19.4038C19.6282 15.3451 19.7556 15.8462 19.7578 16.3778C19.7647 18.233 18.3007 19.722 16.4546 19.7376Z" fill="black"></path>
</svg></svg></g></svg>