<svg width="20" height="20" viewBox="0 0 20 20" fill="none" xmlns="http://www.w3.org/2000/svg">
<mask id="mask0_10706_2508" style="mask-type:alpha" maskUnits="userSpaceOnUse" x="0" y="0" width="20" height="20">
<circle cx="10" cy="10" r="10" fill="white"/>
</mask>
<g mask="url(#mask0_10706_2508)">
<circle cx="10" cy="10" r="10" fill="url(#paint0_radial_10706_2508)"/>
<path d="M17.2902 0H2.7096C1.213 0 0 1.2132 0 2.7098V17.2904C0 18.787 1.213 20 2.7096 20H17.2902C18.7868 20 20 18.787 20 17.2904V2.7098C20 1.2132 18.7868 0 17.2902 0ZM6.3554 16.448C4.7922 16.4612 3.5428 15.231 3.5352 13.6714C3.5278 12.1428 4.7718 10.8972 6.3112 10.8924C7.854 10.8876 9.1022 12.1176 9.108 13.6482C9.1138 15.1942 7.894 16.435 6.3554 16.448ZM13.7122 16.448C12.149 16.4612 10.8996 15.231 10.8918 13.6714V13.658C10.8918 13.1626 11.0238 12.6978 11.254 12.2954C11.318 12.1834 11.3896 12.0762 11.4682 11.9748C11.78 11.508 12.3418 10.6666 12.5258 10.388C12.9856 9.6924 12.907 9.1086 11.8302 9.1086H9.8732L9.8722 9.105C8.3854 9.0354 7.2208 7.8374 7.2136 6.3318C7.206 4.8032 8.4502 3.5578 9.9896 3.553C11.154 3.5492 12.1504 4.2494 12.5716 5.251L16.17 12.4176H16.1698C16.3568 12.7876 16.463 13.2052 16.4648 13.6482C16.4706 15.1942 15.2506 16.435 13.7122 16.448Z" fill="black"/>
<path d="M17.2902 0H2.7096C1.213 0 0 1.2132 0 2.7098V17.2904C0 18.787 1.213 20 2.7096 20H17.2902C18.7868 20 20 18.787 20 17.2904V2.7098C20 1.2132 18.7868 0 17.2902 0ZM6.3554 16.448C4.7922 16.4612 3.5428 15.231 3.5352 13.6714C3.5278 12.1428 4.7718 10.8972 6.3112 10.8924C7.854 10.8876 9.1022 12.1176 9.108 13.6482C9.1138 15.1942 7.894 16.435 6.3554 16.448ZM13.7122 16.448C12.149 16.4612 10.8996 15.231 10.8918 13.6714V13.658C10.8918 13.1626 11.0238 12.6978 11.254 12.2954C11.318 12.1834 11.3896 12.0762 11.4682 11.9748C11.78 11.508 12.3418 10.6666 12.5258 10.388C12.9856 9.6924 12.907 9.1086 11.8302 9.1086H9.8732L9.8722 9.105C8.3854 9.0354 7.2208 7.8374 7.2136 6.3318C7.206 4.8032 8.4502 3.5578 9.9896 3.553C11.154 3.5492 12.1504 4.2494 12.5716 5.251L16.17 12.4176H16.1698C16.3568 12.7876 16.463 13.2052 16.4648 13.6482C16.4706 15.1942 15.2506 16.435 13.7122 16.448Z" fill="url(#paint1_angular_10706_2508)" fill-opacity="0.2"/>
</g>
<defs>
<radialGradient id="paint0_radial_10706_2508" cx="0" cy="0" r="1" gradientUnits="userSpaceOnUse" gradientTransform="translate(10 10) rotate(139.629) scale(18.7405 22.6654)">
<stop stop-color="white"/>
<stop offset="1" stop-color="#CECECE"/>
</radialGradient>
<radialGradient id="paint1_angular_10706_2508" cx="0" cy="0" r="1" gradientUnits="userSpaceOnUse" gradientTransform="translate(10 10) rotate(-47.7263) scale(2.47768)">
<stop stop-color="white"/>
<stop offset="0.422631" stop-color="white" stop-opacity="0"/>
<stop offset="1" stop-color="white"/>
</radialGradient>
</defs>
</svg>
