<svg width="25" height="25" viewBox="0 0 25 25" fill="currentColor" xmlns="http://www.w3.org/2000/svg">
<path d="M12.8 2.5C7.28005 2.5 2.80005 6.98 2.80005 12.5C2.80005 18.02 7.28005 22.5 12.8 22.5C18.32 22.5 22.8 18.02 22.8 12.5C22.8 6.98 18.32 2.5 12.8 2.5ZM12.8 20.5C8.39005 20.5 4.80005 16.91 4.80005 12.5C4.80005 8.09 8.39005 4.5 12.8 4.5C17.21 4.5 20.8 8.09 20.8 12.5C20.8 16.91 17.21 20.5 12.8 20.5ZM7.30005 18L14.81 14.51L18.3 7L10.79 10.49L7.30005 18ZM12.8 11.4C13.41 11.4 13.9 11.89 13.9 12.5C13.9 13.11 13.41 13.6 12.8 13.6C12.19 13.6 11.7 13.11 11.7 12.5C11.7 11.89 12.19 11.4 12.8 11.4Z" fill="currentColor"/>
</svg>
