<svg width="223" height="74" viewBox="0 0 223 74" fill="none" xmlns="http://www.w3.org/2000/svg">
<g filter="url(#filter0_d_10206_1077)">
<mask id="path-1-outside-1_10206_1077" maskUnits="userSpaceOnUse" x="-3" y="-2" width="228" height="74" fill="black">
<rect fill="white" x="-3" y="-2" width="228" height="74"/>
<path d="M3.10094 57V48.6L24.7009 28.2C26.4076 26.6533 27.6609 25.2667 28.4609 24.04C29.2609 22.8133 29.7943 21.6933 30.0609 20.68C30.3809 19.6667 30.5409 18.7333 30.5409 17.88C30.5409 15.64 29.7676 13.9333 28.2209 12.76C26.7276 11.5333 24.5143 10.92 21.5809 10.92C19.2343 10.92 17.0476 11.3733 15.0209 12.28C13.0476 13.1867 11.3676 14.6 9.98094 16.52L0.540938 10.44C2.67427 7.24 5.66094 4.70666 9.50094 2.84C13.3409 0.973331 17.7676 0.039999 22.7809 0.039999C26.9409 0.039999 30.5676 0.733331 33.6609 2.12C36.8076 3.45333 39.2343 5.34667 40.9409 7.8C42.7009 10.2533 43.5809 13.1867 43.5809 16.6C43.5809 18.4133 43.3409 20.2267 42.8609 22.04C42.4343 23.8 41.5276 25.6667 40.1409 27.64C38.8076 29.6133 36.8343 31.8267 34.2209 34.28L16.3009 51.16L13.8209 46.44H45.4209V57H3.10094ZM52.0297 69.32L57.3097 50.12L59.0697 57.32C56.7764 57.32 54.883 56.6533 53.3897 55.32C51.9497 53.9867 51.2297 52.1467 51.2297 49.8C51.2297 47.4533 51.9764 45.5867 53.4697 44.2C54.963 42.8133 56.803 42.12 58.9897 42.12C61.2297 42.12 63.0697 42.84 64.5097 44.28C65.9497 45.6667 66.6697 47.5067 66.6697 49.8C66.6697 50.4933 66.6164 51.1867 66.5097 51.88C66.403 52.52 66.1897 53.32 65.8697 54.28C65.603 55.1867 65.1497 56.36 64.5097 57.8L59.9497 69.32H52.0297ZM91.5272 57.96C87.6339 57.96 83.7672 57.4533 79.9272 56.44C76.1405 55.3733 72.8872 53.88 70.1672 51.96L75.2872 42.04C77.4205 43.5867 79.8739 44.8133 82.6472 45.72C85.4739 46.6267 88.3272 47.08 91.2072 47.08C94.4605 47.08 97.0205 46.44 98.8872 45.16C100.754 43.88 101.687 42.0933 101.687 39.8C101.687 38.36 101.314 37.08 100.567 35.96C99.8205 34.84 98.4872 33.9867 96.5672 33.4C94.7005 32.8133 92.0605 32.52 88.6472 32.52H74.3272L77.2072 0.999996H111.367V11.4H81.8472L88.5672 5.48L86.5672 27.96L79.8472 22.04H91.6872C97.2339 22.04 101.687 22.8133 105.047 24.36C108.461 25.8533 110.941 27.9067 112.487 30.52C114.034 33.1333 114.807 36.0933 114.807 39.4C114.807 42.7067 113.981 45.7733 112.327 48.6C110.674 51.3733 108.114 53.64 104.647 55.4C101.234 57.1067 96.8605 57.96 91.5272 57.96ZM144.065 57.96C139.479 57.96 135.372 56.84 131.745 54.6C128.119 52.3067 125.265 49 123.185 44.68C121.105 40.36 120.065 35.1333 120.065 29C120.065 22.8667 121.105 17.64 123.185 13.32C125.265 9 128.119 5.72 131.745 3.48C135.372 1.18667 139.479 0.039999 144.065 0.039999C148.705 0.039999 152.812 1.18667 156.385 3.48C160.012 5.72 162.865 9 164.945 13.32C167.025 17.64 168.065 22.8667 168.065 29C168.065 35.1333 167.025 40.36 164.945 44.68C162.865 49 160.012 52.3067 156.385 54.6C152.812 56.84 148.705 57.96 144.065 57.96ZM144.065 47C146.252 47 148.145 46.3867 149.745 45.16C151.399 43.9333 152.679 41.9867 153.585 39.32C154.545 36.6533 155.025 33.2133 155.025 29C155.025 24.7867 154.545 21.3467 153.585 18.68C152.679 16.0133 151.399 14.0667 149.745 12.84C148.145 11.6133 146.252 11 144.065 11C141.932 11 140.039 11.6133 138.385 12.84C136.785 14.0667 135.505 16.0133 134.545 18.68C133.639 21.3467 133.185 24.7867 133.185 29C133.185 33.2133 133.639 36.6533 134.545 39.32C135.505 41.9867 136.785 43.9333 138.385 45.16C140.039 46.3867 141.932 47 144.065 47ZM198.362 57.96C193.776 57.96 189.669 56.84 186.042 54.6C182.416 52.3067 179.562 49 177.482 44.68C175.402 40.36 174.362 35.1333 174.362 29C174.362 22.8667 175.402 17.64 177.482 13.32C179.562 9 182.416 5.72 186.042 3.48C189.669 1.18667 193.776 0.039999 198.362 0.039999C203.002 0.039999 207.109 1.18667 210.682 3.48C214.309 5.72 217.162 9 219.242 13.32C221.322 17.64 222.362 22.8667 222.362 29C222.362 35.1333 221.322 40.36 219.242 44.68C217.162 49 214.309 52.3067 210.682 54.6C207.109 56.84 203.002 57.96 198.362 57.96ZM198.362 47C200.549 47 202.442 46.3867 204.042 45.16C205.696 43.9333 206.976 41.9867 207.882 39.32C208.842 36.6533 209.322 33.2133 209.322 29C209.322 24.7867 208.842 21.3467 207.882 18.68C206.976 16.0133 205.696 14.0667 204.042 12.84C202.442 11.6133 200.549 11 198.362 11C196.229 11 194.336 11.6133 192.682 12.84C191.082 14.0667 189.802 16.0133 188.842 18.68C187.936 21.3467 187.482 24.7867 187.482 29C187.482 33.2133 187.936 36.6533 188.842 39.32C189.802 41.9867 191.082 43.9333 192.682 45.16C194.336 46.3867 196.229 47 198.362 47Z"/>
</mask>
<path d="M3.10094 57V48.6L24.7009 28.2C26.4076 26.6533 27.6609 25.2667 28.4609 24.04C29.2609 22.8133 29.7943 21.6933 30.0609 20.68C30.3809 19.6667 30.5409 18.7333 30.5409 17.88C30.5409 15.64 29.7676 13.9333 28.2209 12.76C26.7276 11.5333 24.5143 10.92 21.5809 10.92C19.2343 10.92 17.0476 11.3733 15.0209 12.28C13.0476 13.1867 11.3676 14.6 9.98094 16.52L0.540938 10.44C2.67427 7.24 5.66094 4.70666 9.50094 2.84C13.3409 0.973331 17.7676 0.039999 22.7809 0.039999C26.9409 0.039999 30.5676 0.733331 33.6609 2.12C36.8076 3.45333 39.2343 5.34667 40.9409 7.8C42.7009 10.2533 43.5809 13.1867 43.5809 16.6C43.5809 18.4133 43.3409 20.2267 42.8609 22.04C42.4343 23.8 41.5276 25.6667 40.1409 27.64C38.8076 29.6133 36.8343 31.8267 34.2209 34.28L16.3009 51.16L13.8209 46.44H45.4209V57H3.10094ZM52.0297 69.32L57.3097 50.12L59.0697 57.32C56.7764 57.32 54.883 56.6533 53.3897 55.32C51.9497 53.9867 51.2297 52.1467 51.2297 49.8C51.2297 47.4533 51.9764 45.5867 53.4697 44.2C54.963 42.8133 56.803 42.12 58.9897 42.12C61.2297 42.12 63.0697 42.84 64.5097 44.28C65.9497 45.6667 66.6697 47.5067 66.6697 49.8C66.6697 50.4933 66.6164 51.1867 66.5097 51.88C66.403 52.52 66.1897 53.32 65.8697 54.28C65.603 55.1867 65.1497 56.36 64.5097 57.8L59.9497 69.32H52.0297ZM91.5272 57.96C87.6339 57.96 83.7672 57.4533 79.9272 56.44C76.1405 55.3733 72.8872 53.88 70.1672 51.96L75.2872 42.04C77.4205 43.5867 79.8739 44.8133 82.6472 45.72C85.4739 46.6267 88.3272 47.08 91.2072 47.08C94.4605 47.08 97.0205 46.44 98.8872 45.16C100.754 43.88 101.687 42.0933 101.687 39.8C101.687 38.36 101.314 37.08 100.567 35.96C99.8205 34.84 98.4872 33.9867 96.5672 33.4C94.7005 32.8133 92.0605 32.52 88.6472 32.52H74.3272L77.2072 0.999996H111.367V11.4H81.8472L88.5672 5.48L86.5672 27.96L79.8472 22.04H91.6872C97.2339 22.04 101.687 22.8133 105.047 24.36C108.461 25.8533 110.941 27.9067 112.487 30.52C114.034 33.1333 114.807 36.0933 114.807 39.4C114.807 42.7067 113.981 45.7733 112.327 48.6C110.674 51.3733 108.114 53.64 104.647 55.4C101.234 57.1067 96.8605 57.96 91.5272 57.96ZM144.065 57.96C139.479 57.96 135.372 56.84 131.745 54.6C128.119 52.3067 125.265 49 123.185 44.68C121.105 40.36 120.065 35.1333 120.065 29C120.065 22.8667 121.105 17.64 123.185 13.32C125.265 9 128.119 5.72 131.745 3.48C135.372 1.18667 139.479 0.039999 144.065 0.039999C148.705 0.039999 152.812 1.18667 156.385 3.48C160.012 5.72 162.865 9 164.945 13.32C167.025 17.64 168.065 22.8667 168.065 29C168.065 35.1333 167.025 40.36 164.945 44.68C162.865 49 160.012 52.3067 156.385 54.6C152.812 56.84 148.705 57.96 144.065 57.96ZM144.065 47C146.252 47 148.145 46.3867 149.745 45.16C151.399 43.9333 152.679 41.9867 153.585 39.32C154.545 36.6533 155.025 33.2133 155.025 29C155.025 24.7867 154.545 21.3467 153.585 18.68C152.679 16.0133 151.399 14.0667 149.745 12.84C148.145 11.6133 146.252 11 144.065 11C141.932 11 140.039 11.6133 138.385 12.84C136.785 14.0667 135.505 16.0133 134.545 18.68C133.639 21.3467 133.185 24.7867 133.185 29C133.185 33.2133 133.639 36.6533 134.545 39.32C135.505 41.9867 136.785 43.9333 138.385 45.16C140.039 46.3867 141.932 47 144.065 47ZM198.362 57.96C193.776 57.96 189.669 56.84 186.042 54.6C182.416 52.3067 179.562 49 177.482 44.68C175.402 40.36 174.362 35.1333 174.362 29C174.362 22.8667 175.402 17.64 177.482 13.32C179.562 9 182.416 5.72 186.042 3.48C189.669 1.18667 193.776 0.039999 198.362 0.039999C203.002 0.039999 207.109 1.18667 210.682 3.48C214.309 5.72 217.162 9 219.242 13.32C221.322 17.64 222.362 22.8667 222.362 29C222.362 35.1333 221.322 40.36 219.242 44.68C217.162 49 214.309 52.3067 210.682 54.6C207.109 56.84 203.002 57.96 198.362 57.96ZM198.362 47C200.549 47 202.442 46.3867 204.042 45.16C205.696 43.9333 206.976 41.9867 207.882 39.32C208.842 36.6533 209.322 33.2133 209.322 29C209.322 24.7867 208.842 21.3467 207.882 18.68C206.976 16.0133 205.696 14.0667 204.042 12.84C202.442 11.6133 200.549 11 198.362 11C196.229 11 194.336 11.6133 192.682 12.84C191.082 14.0667 189.802 16.0133 188.842 18.68C187.936 21.3467 187.482 24.7867 187.482 29C187.482 33.2133 187.936 36.6533 188.842 39.32C189.802 41.9867 191.082 43.9333 192.682 45.16C194.336 46.3867 196.229 47 198.362 47Z" fill="white"/>
<path d="M3.10094 57H1.10094V59H3.10094V57ZM3.10094 48.6L1.72769 47.146L1.10094 47.7379V48.6H3.10094ZM24.7009 28.2L23.3579 26.718L23.3427 26.7318L23.3277 26.746L24.7009 28.2ZM28.4609 24.04L30.1362 25.1325V25.1325L28.4609 24.04ZM30.0609 20.68L28.1538 20.0777L28.1391 20.124L28.1268 20.171L30.0609 20.68ZM28.2209 12.76L26.9515 14.3054L26.9813 14.33L27.0122 14.3534L28.2209 12.76ZM15.0209 12.28L14.2042 10.4544L14.1951 10.4585L14.1859 10.4626L15.0209 12.28ZM9.98093 16.52L8.89798 18.2014L10.4921 19.2282L11.6023 17.691L9.98093 16.52ZM0.540939 10.44L-1.12316 9.3306L-2.25024 11.0212L-0.542015 12.1214L0.540939 10.44ZM9.50094 2.84L8.62656 1.04126L8.62655 1.04126L9.50094 2.84ZM33.6609 2.12L32.8428 3.94502L32.8616 3.95345L32.8806 3.9615L33.6609 2.12ZM40.9409 7.8L39.2991 8.94213L39.3074 8.95403L39.3159 8.96581L40.9409 7.8ZM42.8609 22.04L40.9275 21.5282L40.9222 21.5485L40.9172 21.5688L42.8609 22.04ZM40.1409 27.64L38.5046 26.4901L38.494 26.5051L38.4838 26.5203L40.1409 27.64ZM34.2209 34.28L32.8521 32.8219L32.8496 32.8242L34.2209 34.28ZM16.3009 51.16L14.5304 52.0903L15.7553 54.4215L17.6723 52.6158L16.3009 51.16ZM13.8209 46.44V44.44H10.5108L12.0505 47.3703L13.8209 46.44ZM45.4209 46.44H47.4209V44.44H45.4209V46.44ZM45.4209 57V59H47.4209V57H45.4209ZM5.10094 57V48.6H1.10094V57H5.10094ZM4.47418 50.054L26.0742 29.654L23.3277 26.746L1.72769 47.146L4.47418 50.054ZM26.044 29.682C27.814 28.0779 29.2051 26.5602 30.1362 25.1325L26.7857 22.9475C26.1168 23.9732 25.0012 25.2288 23.3579 26.718L26.044 29.682ZM30.1362 25.1325C31.0103 23.7921 31.657 22.4737 31.9951 21.189L28.1268 20.171C27.9315 20.913 27.5116 21.8345 26.7857 22.9475L30.1362 25.1325ZM31.9681 21.2823C32.3352 20.1198 32.5409 18.9806 32.5409 17.88H28.5409C28.5409 18.4861 28.4267 19.2135 28.1538 20.0777L31.9681 21.2823ZM32.5409 17.88C32.5409 15.1236 31.5559 12.7796 29.4297 11.1666L27.0122 14.3534C27.9793 15.0871 28.5409 16.1564 28.5409 17.88H32.5409ZM29.4904 11.2145C27.4951 9.5755 24.7479 8.92 21.5809 8.92V12.92C24.2806 12.92 25.9602 13.4912 26.9515 14.3054L29.4904 11.2145ZM21.5809 8.92C18.9691 8.92 16.5023 9.42626 14.2042 10.4544L15.8377 14.1056C17.5929 13.3204 19.4994 12.92 21.5809 12.92V8.92ZM14.1859 10.4626C11.8712 11.5262 9.92943 13.1754 8.35958 15.349L11.6023 17.691C12.8058 16.0246 14.224 14.8471 15.8559 14.0974L14.1859 10.4626ZM11.0639 14.8386L1.62389 8.75857L-0.542015 12.1214L8.89798 18.2014L11.0639 14.8386ZM2.20504 11.5494C4.11994 8.67705 6.81902 6.36749 10.3753 4.63873L8.62655 1.04126C4.50286 3.04583 1.2286 5.80295 -1.12316 9.3306L2.20504 11.5494ZM10.3753 4.63873C13.8993 2.92568 18.0181 2.04 22.7809 2.04V-1.96C17.5171 -1.96 12.7826 -0.979022 8.62656 1.04126L10.3753 4.63873ZM22.7809 2.04C26.7215 2.04 30.0583 2.69679 32.8428 3.94502L34.479 0.294977C31.0769 -1.23013 27.1604 -1.96 22.7809 -1.96V2.04ZM32.8806 3.9615C35.731 5.16927 37.8375 6.84108 39.2991 8.94213L42.5827 6.65787C40.631 3.85225 37.8842 1.73739 34.4412 0.278493L32.8806 3.9615ZM39.3159 8.96581C40.8009 11.0359 41.5809 13.5481 41.5809 16.6H45.5809C45.5809 12.8253 44.601 9.47081 42.566 6.63418L39.3159 8.96581ZM41.5809 16.6C41.5809 18.2347 41.3649 19.8761 40.9275 21.5282L44.7943 22.5518C45.317 20.5772 45.5809 18.592 45.5809 16.6H41.5809ZM40.9172 21.5688C40.5656 23.0193 39.7923 24.6576 38.5046 26.4901L41.7773 28.7899C43.263 26.6757 44.3029 24.5807 44.8046 22.5112L40.9172 21.5688ZM38.4838 26.5203C37.2641 28.3254 35.4056 30.4247 32.8521 32.8219L35.5898 35.7381C38.263 33.2286 40.3511 30.9013 41.7981 28.7597L38.4838 26.5203ZM32.8496 32.8242L14.9296 49.7042L17.6723 52.6158L35.5923 35.7358L32.8496 32.8242ZM18.0714 50.2297L15.5914 45.5097L12.0505 47.3703L14.5304 52.0903L18.0714 50.2297ZM13.8209 48.44H45.4209V44.44H13.8209V48.44ZM43.4209 46.44V57H47.4209V46.44H43.4209ZM45.4209 55H3.10094V59H45.4209V55ZM52.0297 69.32L50.1013 68.7897L49.4054 71.32H52.0297V69.32ZM57.3097 50.12L59.2525 49.6451L57.4236 42.1632L55.3813 49.5897L57.3097 50.12ZM59.0697 57.32V59.32H61.6175L61.0125 56.8451L59.0697 57.32ZM53.3897 55.32L52.0309 56.7875L52.0442 56.7998L52.0577 56.8119L53.3897 55.32ZM53.4697 44.2L52.1088 42.7344L53.4697 44.2ZM64.5097 44.28L63.0955 45.6942L63.1088 45.7076L63.1224 45.7206L64.5097 44.28ZM66.5097 51.88L68.4825 52.2088L68.4845 52.1965L68.4864 52.1841L66.5097 51.88ZM65.8697 54.28L63.9723 53.6475L63.961 53.6814L63.951 53.7157L65.8697 54.28ZM64.5097 57.8L62.6821 56.9877L62.6653 57.0255L62.6501 57.0639L64.5097 57.8ZM59.9497 69.32V71.32H61.309L61.8093 70.0561L59.9497 69.32ZM53.9581 69.8503L59.2381 50.6503L55.3813 49.5897L50.1013 68.7897L53.9581 69.8503ZM55.3669 50.5949L57.1269 57.7949L61.0125 56.8451L59.2525 49.6451L55.3669 50.5949ZM59.0697 55.32C57.1914 55.32 55.7953 54.7867 54.7217 53.8281L52.0577 56.8119C53.9707 58.52 56.3613 59.32 59.0697 59.32V55.32ZM54.7485 53.8525C53.7967 52.9712 53.2297 51.7079 53.2297 49.8H49.2297C49.2297 52.5855 50.1027 55.0021 52.0309 56.7875L54.7485 53.8525ZM53.2297 49.8C53.2297 47.917 53.8079 46.6152 54.8306 45.6656L52.1088 42.7344C50.1448 44.5581 49.2297 46.9896 49.2297 49.8H53.2297ZM54.8306 45.6656C55.9255 44.6489 57.2675 44.12 58.9897 44.12V40.12C56.3385 40.12 54.0006 40.9778 52.1088 42.7344L54.8306 45.6656ZM58.9897 44.12C60.7575 44.12 62.0698 44.6686 63.0955 45.6942L65.9239 42.8658C64.0696 41.0114 61.7019 40.12 58.9897 40.12V44.12ZM63.1224 45.7206C64.1122 46.6737 64.6697 47.9628 64.6697 49.8H68.6697C68.6697 47.0505 67.7872 44.6596 65.897 42.8394L63.1224 45.7206ZM64.6697 49.8C64.6697 50.3903 64.6243 50.982 64.5329 51.5759L68.4864 52.1841C68.6084 51.3913 68.6697 50.5963 68.6697 49.8H64.6697ZM64.5369 51.5512C64.4541 52.0479 64.2754 52.7384 63.9723 53.6475L67.7671 54.9125C68.104 53.9016 68.3519 52.9921 68.4825 52.2088L64.5369 51.5512ZM63.951 53.7157C63.7201 54.5006 63.3065 55.5828 62.6821 56.9877L66.3373 58.6123C66.9929 57.1372 67.486 55.8727 67.7884 54.8443L63.951 53.7157ZM62.6501 57.0639L58.0901 68.5839L61.8093 70.0561L66.3693 58.5361L62.6501 57.0639ZM59.9497 67.32H52.0297V71.32H59.9497V67.32ZM79.9272 56.44L79.3849 58.3651L79.4009 58.3696L79.4169 58.3738L79.9272 56.44ZM70.1672 51.96L68.39 51.0427L67.5914 52.5899L69.0138 53.5939L70.1672 51.96ZM75.2872 42.04L76.4611 40.4208L74.5772 39.0549L73.5099 41.1227L75.2872 42.04ZM82.6472 45.72L82.0257 47.621L82.0363 47.6244L82.6472 45.72ZM98.8872 45.16L100.018 46.8095L98.8872 45.16ZM96.5672 33.4L95.9675 35.308L95.9751 35.3104L95.9828 35.3127L96.5672 33.4ZM74.3272 32.52L72.3355 32.338L72.1361 34.52H74.3272V32.52ZM77.2072 0.999996V-1H75.3816L75.2155 0.818013L77.2072 0.999996ZM111.367 0.999996H113.367V-1H111.367V0.999996ZM111.367 11.4V13.4H113.367V11.4H111.367ZM81.8472 11.4L80.5251 9.89928L76.5513 13.4H81.8472V11.4ZM88.5672 5.48L90.5593 5.65723L91.0031 0.668644L87.2451 3.97928L88.5672 5.48ZM86.5672 27.96L85.2451 29.4607L88.2093 32.072L88.5593 28.1372L86.5672 27.96ZM79.8472 22.04V20.04H74.5513L78.5251 23.5407L79.8472 22.04ZM105.047 24.36L104.211 26.1768L104.228 26.1847L104.246 26.1923L105.047 24.36ZM112.487 30.52L114.208 29.5014L112.487 30.52ZM112.327 48.6L114.045 49.6241L114.049 49.617L114.054 49.6098L112.327 48.6ZM104.647 55.4L105.542 57.1889L105.553 57.1833L104.647 55.4ZM91.5272 55.96C87.8095 55.96 84.1143 55.4765 80.4375 54.5062L79.4169 58.3738C83.4201 59.4302 87.4582 59.96 91.5272 59.96V55.96ZM80.4695 54.5149C76.8628 53.499 73.8246 52.0936 71.3206 50.3261L69.0138 53.5939C71.9498 55.6664 75.4183 57.2477 79.3849 58.3651L80.4695 54.5149ZM71.9444 52.8773L77.0644 42.9573L73.5099 41.1227L68.39 51.0427L71.9444 52.8773ZM74.1133 43.6592C76.432 45.3403 79.0757 46.6566 82.0257 47.621L83.2687 43.819C80.672 42.9701 78.4091 41.833 76.4611 40.4208L74.1133 43.6592ZM82.0363 47.6244C85.0543 48.5925 88.1135 49.08 91.2072 49.08V45.08C88.5409 45.08 85.8934 44.6609 83.258 43.8156L82.0363 47.6244ZM91.2072 49.08C94.6954 49.08 97.7022 48.3976 100.018 46.8095L97.7561 43.5105C96.3389 44.4824 94.2257 45.08 91.2072 45.08V49.08ZM100.018 46.8095C102.437 45.1506 103.687 42.7423 103.687 39.8H99.6872C99.6872 41.4444 99.0703 42.6094 97.7561 43.5105L100.018 46.8095ZM103.687 39.8C103.687 37.9941 103.212 36.3224 102.231 34.8506L98.9031 37.0694C99.4152 37.8376 99.6872 38.7259 99.6872 39.8H103.687ZM102.231 34.8506C101.129 33.1968 99.3044 32.1451 97.1516 31.4873L95.9828 35.3127C97.67 35.8283 98.5123 36.4832 98.9031 37.0694L102.231 34.8506ZM97.1668 31.492C95.0136 30.8153 92.1365 30.52 88.6472 30.52V34.52C91.9845 34.52 94.3874 34.8114 95.9675 35.308L97.1668 31.492ZM88.6472 30.52H74.3272V34.52H88.6472V30.52ZM76.3189 32.702L79.1989 1.18198L75.2155 0.818013L72.3355 32.338L76.3189 32.702ZM77.2072 3H111.367V-1H77.2072V3ZM109.367 0.999996V11.4H113.367V0.999996H109.367ZM111.367 9.4H81.8472V13.4H111.367V9.4ZM83.1693 12.9007L89.8893 6.98071L87.2451 3.97928L80.5251 9.89928L83.1693 12.9007ZM86.5751 5.30276L84.5751 27.7828L88.5593 28.1372L90.5593 5.65723L86.5751 5.30276ZM87.8893 26.4593L81.1693 20.5393L78.5251 23.5407L85.2451 29.4607L87.8893 26.4593ZM79.8472 24.04H91.6872V20.04H79.8472V24.04ZM91.6872 24.04C97.0765 24.04 101.211 24.7958 104.211 26.1768L105.883 22.5432C102.164 20.8309 97.3912 20.04 91.6872 20.04V24.04ZM104.246 26.1923C107.363 27.5563 109.477 29.3614 110.766 31.5386L114.208 29.5014C112.404 26.4519 109.558 24.1504 105.849 22.5277L104.246 26.1923ZM110.766 31.5386C112.114 33.8164 112.807 36.4188 112.807 39.4H116.807C116.807 35.7678 115.954 32.4502 114.208 29.5014L110.766 31.5386ZM112.807 39.4C112.807 42.3554 112.073 45.073 110.601 47.5902L114.054 49.6098C115.888 46.4736 116.807 43.0579 116.807 39.4H112.807ZM110.609 47.5759C109.186 49.9635 106.941 51.9926 103.742 53.6167L105.553 57.1833C109.287 55.2874 112.162 52.7832 114.045 49.6241L110.609 47.5759ZM103.753 53.6111C100.705 55.135 96.6661 55.96 91.5272 55.96V59.96C97.055 59.96 101.763 59.0783 105.542 57.1889L103.753 53.6111ZM131.745 54.6L130.676 56.2904L130.685 56.296L130.694 56.3016L131.745 54.6ZM123.185 44.68L121.383 45.5476L123.185 44.68ZM123.185 13.32L124.987 14.1876V14.1876L123.185 13.32ZM131.745 3.48L132.796 5.18159L132.805 5.17604L132.814 5.17038L131.745 3.48ZM156.385 3.48L155.305 5.16317L155.32 5.17251L155.334 5.18159L156.385 3.48ZM164.945 13.32L163.143 14.1876V14.1876L164.945 13.32ZM164.945 44.68L163.143 43.8124L164.945 44.68ZM156.385 54.6L157.448 56.2946L157.454 56.2904L156.385 54.6ZM149.745 45.16L148.554 43.5538L148.541 43.5632L148.528 43.5728L149.745 45.16ZM153.585 39.32L151.704 38.6426L151.698 38.6593L151.692 38.6762L153.585 39.32ZM153.585 18.68L151.692 19.3238L151.698 19.3407L151.704 19.3574L153.585 18.68ZM149.745 12.84L148.528 14.4272L148.541 14.4368L148.554 14.4462L149.745 12.84ZM138.385 12.84L137.194 11.2338L137.181 11.2432L137.168 11.2528L138.385 12.84ZM134.545 18.68L132.664 18.0026L132.658 18.0193L132.652 18.0362L134.545 18.68ZM134.545 39.32L132.652 39.9638L132.658 39.9807L132.664 39.9974L134.545 39.32ZM138.385 45.16L137.168 46.7472L137.181 46.7568L137.194 46.7662L138.385 45.16ZM144.065 55.96C139.821 55.96 136.083 54.9285 132.796 52.8984L130.694 56.3016C134.661 58.7515 139.137 59.96 144.065 59.96V55.96ZM132.814 52.9096C129.54 50.8394 126.924 47.8357 124.987 43.8124L121.383 45.5476C123.606 50.1643 126.697 53.774 130.676 56.2904L132.814 52.9096ZM124.987 43.8124C123.069 39.8277 122.065 34.914 122.065 29H118.065C118.065 35.3526 119.142 40.8923 121.383 45.5476L124.987 43.8124ZM122.065 29C122.065 23.086 123.069 18.1723 124.987 14.1876L121.383 12.4524C119.142 17.1077 118.065 22.6474 118.065 29H122.065ZM124.987 14.1876C126.923 10.1674 129.534 7.19665 132.796 5.18159L130.694 1.7784C126.703 4.24334 123.608 7.83263 121.383 12.4524L124.987 14.1876ZM132.814 5.17038C136.099 3.09338 139.83 2.04 144.065 2.04V-1.96C139.127 -1.96 134.645 -0.720052 130.676 1.78961L132.814 5.17038ZM144.065 2.04C148.359 2.04 152.084 3.09579 155.305 5.16317L157.466 1.79682C153.54 -0.722457 149.051 -1.96 144.065 -1.96V2.04ZM155.334 5.18159C158.597 7.19665 161.208 10.1674 163.143 14.1876L166.747 12.4524C164.523 7.83263 161.427 4.24334 157.436 1.7784L155.334 5.18159ZM163.143 14.1876C165.062 18.1723 166.065 23.086 166.065 29H170.065C170.065 22.6474 168.989 17.1077 166.747 12.4524L163.143 14.1876ZM166.065 29C166.065 34.914 165.062 39.8277 163.143 43.8124L166.747 45.5476C168.989 40.8923 170.065 35.3526 170.065 29H166.065ZM163.143 43.8124C161.206 47.8357 158.59 50.8394 155.316 52.9096L157.454 56.2904C161.434 53.774 164.524 50.1643 166.747 45.5476L163.143 43.8124ZM155.323 52.9054C152.1 54.9261 148.369 55.96 144.065 55.96V59.96C149.042 59.96 153.524 58.7539 157.448 56.2946L155.323 52.9054ZM144.065 49C146.652 49 148.983 48.2647 150.962 46.7472L148.528 43.5728C147.308 44.5086 145.852 45 144.065 45V49ZM150.937 46.7662C153.017 45.2231 154.488 42.8771 155.479 39.9638L151.692 38.6762C150.869 41.0963 149.78 42.6436 148.554 43.5538L150.937 46.7662ZM155.467 39.9974C156.534 37.035 157.025 33.3428 157.025 29H153.025C153.025 33.0838 152.557 36.2716 151.704 38.6426L155.467 39.9974ZM157.025 29C157.025 24.6572 156.534 20.9649 155.467 18.0026L151.704 19.3574C152.557 21.7284 153.025 24.9162 153.025 29H157.025ZM155.479 18.0362C154.488 15.1229 153.017 12.7769 150.937 11.2338L148.554 14.4462C149.78 15.3564 150.869 16.9037 151.692 19.3238L155.479 18.0362ZM150.962 11.2528C148.983 9.73531 146.652 9 144.065 9V13C145.852 13 147.308 13.4913 148.528 14.4272L150.962 11.2528ZM144.065 9C141.519 9 139.205 9.74164 137.194 11.2338L139.577 14.4462C140.872 13.485 142.345 13 144.065 13V9ZM137.168 11.2528C135.164 12.7893 133.703 15.1154 132.664 18.0026L136.427 19.3574C137.308 16.9112 138.406 15.344 139.602 14.4272L137.168 11.2528ZM132.652 18.0362C131.649 20.9859 131.185 24.6652 131.185 29H135.185C135.185 24.9081 135.628 21.7075 136.439 19.3238L132.652 18.0362ZM131.185 29C131.185 33.3348 131.649 37.0141 132.652 39.9638L136.439 38.6762C135.628 36.2925 135.185 33.0919 135.185 29H131.185ZM132.664 39.9974C133.703 42.8846 135.164 45.2107 137.168 46.7472L139.602 43.5728C138.406 42.656 137.308 41.0887 136.427 38.6426L132.664 39.9974ZM137.194 46.7662C139.205 48.2584 141.519 49 144.065 49V45C142.345 45 140.872 44.515 139.577 43.5538L137.194 46.7662ZM186.042 54.6L184.973 56.2904L184.982 56.296L184.991 56.3016L186.042 54.6ZM177.482 44.68L175.68 45.5476L177.482 44.68ZM177.482 13.32L179.284 14.1876V14.1876L177.482 13.32ZM186.042 3.48L187.093 5.18159L187.102 5.17604L187.111 5.17038L186.042 3.48ZM210.682 3.48L209.602 5.16317L209.616 5.17251L209.631 5.18159L210.682 3.48ZM219.242 13.32L217.44 14.1876V14.1876L219.242 13.32ZM219.242 44.68L217.44 43.8124L219.242 44.68ZM210.682 54.6L211.744 56.2946L211.751 56.2904L210.682 54.6ZM204.042 45.16L202.85 43.5538L202.838 43.5632L202.825 43.5728L204.042 45.16ZM207.882 39.32L206 38.6426L205.994 38.6593L205.989 38.6762L207.882 39.32ZM207.882 18.68L205.989 19.3238L205.994 19.3407L206 19.3574L207.882 18.68ZM204.042 12.84L202.825 14.4272L202.838 14.4368L202.85 14.4462L204.042 12.84ZM192.682 12.84L191.491 11.2338L191.478 11.2432L191.465 11.2528L192.682 12.84ZM188.842 18.68L186.96 18.0026L186.954 18.0193L186.949 18.0362L188.842 18.68ZM188.842 39.32L186.949 39.9638L186.954 39.9807L186.96 39.9974L188.842 39.32ZM192.682 45.16L191.465 46.7472L191.478 46.7568L191.491 46.7662L192.682 45.16ZM198.362 55.96C194.117 55.96 190.38 54.9285 187.093 52.8984L184.991 56.3016C188.958 58.7515 193.434 59.96 198.362 59.96V55.96ZM187.111 52.9096C183.837 50.8394 181.221 47.8357 179.284 43.8124L175.68 45.5476C177.903 50.1643 180.994 53.774 184.973 56.2904L187.111 52.9096ZM179.284 43.8124C177.366 39.8277 176.362 34.914 176.362 29H172.362C172.362 35.3526 173.439 40.8923 175.68 45.5476L179.284 43.8124ZM176.362 29C176.362 23.086 177.366 18.1723 179.284 14.1876L175.68 12.4524C173.439 17.1077 172.362 22.6474 172.362 29H176.362ZM179.284 14.1876C181.22 10.1674 183.831 7.19665 187.093 5.18159L184.991 1.7784C181 4.24334 177.904 7.83263 175.68 12.4524L179.284 14.1876ZM187.111 5.17038C190.396 3.09338 194.127 2.04 198.362 2.04V-1.96C193.424 -1.96 188.942 -0.720052 184.973 1.78961L187.111 5.17038ZM198.362 2.04C202.656 2.04 206.381 3.09579 209.602 5.16317L211.762 1.79682C207.837 -0.722457 203.348 -1.96 198.362 -1.96V2.04ZM209.631 5.18159C212.894 7.19665 215.505 10.1674 217.44 14.1876L221.044 12.4524C218.82 7.83263 215.724 4.24334 211.733 1.7784L209.631 5.18159ZM217.44 14.1876C219.359 18.1723 220.362 23.086 220.362 29H224.362C224.362 22.6474 223.286 17.1077 221.044 12.4524L217.44 14.1876ZM220.362 29C220.362 34.914 219.359 39.8277 217.44 43.8124L221.044 45.5476C223.286 40.8923 224.362 35.3526 224.362 29H220.362ZM217.44 43.8124C215.503 47.8357 212.887 50.8394 209.613 52.9096L211.751 56.2904C215.731 53.774 218.821 50.1643 221.044 45.5476L217.44 43.8124ZM209.62 52.9054C206.396 54.9261 202.665 55.96 198.362 55.96V59.96C203.339 59.96 207.821 58.7539 211.744 56.2946L209.62 52.9054ZM198.362 49C200.949 49 203.28 48.2647 205.259 46.7472L202.825 43.5728C201.605 44.5086 200.148 45 198.362 45V49ZM205.234 46.7662C207.314 45.2231 208.785 42.8771 209.776 39.9638L205.989 38.6762C205.166 41.0963 204.077 42.6436 202.85 43.5538L205.234 46.7662ZM209.764 39.9974C210.83 37.035 211.322 33.3428 211.322 29H207.322C207.322 33.0838 206.854 36.2716 206 38.6426L209.764 39.9974ZM211.322 29C211.322 24.6572 210.83 20.9649 209.764 18.0026L206 19.3574C206.854 21.7284 207.322 24.9162 207.322 29H211.322ZM209.776 18.0362C208.785 15.1229 207.314 12.7769 205.234 11.2338L202.85 14.4462C204.077 15.3564 205.166 16.9037 205.989 19.3238L209.776 18.0362ZM205.259 11.2528C203.28 9.73531 200.949 9 198.362 9V13C200.148 13 201.605 13.4913 202.825 14.4272L205.259 11.2528ZM198.362 9C195.816 9 193.502 9.74164 191.491 11.2338L193.874 14.4462C195.169 13.485 196.641 13 198.362 13V9ZM191.465 11.2528C189.461 12.7893 188 15.1154 186.96 18.0026L190.724 19.3574C191.605 16.9112 192.703 15.344 193.899 14.4272L191.465 11.2528ZM186.949 18.0362C185.946 20.9859 185.482 24.6652 185.482 29H189.482C189.482 24.9081 189.925 21.7075 190.736 19.3238L186.949 18.0362ZM185.482 29C185.482 33.3348 185.946 37.0141 186.949 39.9638L190.736 38.6762C189.925 36.2925 189.482 33.0919 189.482 29H185.482ZM186.96 39.9974C188 42.8846 189.461 45.2107 191.465 46.7472L193.899 43.5728C192.703 42.656 191.605 41.0887 190.724 38.6426L186.96 39.9974ZM191.491 46.7662C193.502 48.2584 195.816 49 198.362 49V45C196.641 45 195.169 44.515 193.874 43.5538L191.491 46.7662Z" fill="black" mask="url(#path-1-outside-1_10206_1077)"/>
</g>
<defs>
<filter id="filter0_d_10206_1077" x="0.541016" y="0.0400391" width="221.821" height="73.2803" filterUnits="userSpaceOnUse" color-interpolation-filters="sRGB">
<feFlood flood-opacity="0" result="BackgroundImageFix"/>
<feColorMatrix in="SourceAlpha" type="matrix" values="0 0 0 0 0 0 0 0 0 0 0 0 0 0 0 0 0 0 127 0" result="hardAlpha"/>
<feOffset dy="4"/>
<feComposite in2="hardAlpha" operator="out"/>
<feColorMatrix type="matrix" values="0 0 0 0 0 0 0 0 0 0 0 0 0 0 0 0 0 0 1 0"/>
<feBlend mode="normal" in2="BackgroundImageFix" result="effect1_dropShadow_10206_1077"/>
<feBlend mode="normal" in="SourceGraphic" in2="effect1_dropShadow_10206_1077" result="shape"/>
</filter>
</defs>
</svg>
