<svg width="25" height="25" viewBox="0 0 25 25" fill="currentColor" xmlns="http://www.w3.org/2000/svg">
<path d="M14.4001 2.5H4.40015C3.30015 2.5 2.40015 3.4 2.40015 4.5V14.5H4.40015V4.5H14.4001V2.5ZM18.4001 6.5H8.40015C7.30015 6.5 6.40015 7.4 6.40015 8.5V18.5H8.40015V8.5H18.4001V6.5ZM20.4001 10.5H12.4001C11.3001 10.5 10.4001 11.4 10.4001 12.5V20.5C10.4001 21.6 11.3001 22.5 12.4001 22.5H20.4001C21.5001 22.5 22.4001 21.6 22.4001 20.5V12.5C22.4001 11.4 21.5001 10.5 20.4001 10.5ZM20.4001 20.5H12.4001V12.5H20.4001V20.5Z" fill="currentColor"/>
</svg>
