<svg width="33" height="33" viewBox="0 0 33 33" fill="currentColor" xmlns="http://www.w3.org/2000/svg">
<g clip-path="url(#clip0_822_116694)">
<path d="M16.5006 13.1441C14.6469 13.1441 13.1417 14.6469 13.1417 16.5006C13.1417 18.3542 14.6469 19.8594 16.5006 19.8594C18.3542 19.8594 19.8594 18.3566 19.8594 16.5006C19.8594 14.6446 18.3566 13.1441 16.5006 13.1441ZM16.5006 13.1441C14.6469 13.1441 13.1417 14.6469 13.1417 16.5006C13.1417 18.3542 14.6469 19.8594 16.5006 19.8594C18.3542 19.8594 19.8594 18.3566 19.8594 16.5006C19.8594 14.6446 18.3566 13.1441 16.5006 13.1441ZM24.702 12.4306C24.657 11.4493 24.4911 10.916 24.3536 10.5604C24.1711 10.0911 23.953 9.75448 23.5998 9.4013C23.2466 9.04811 22.9124 8.83004 22.4431 8.64752C22.0875 8.51004 21.5542 8.34648 20.5705 8.30145C19.5086 8.25404 19.1909 8.24219 16.5006 8.24219C13.8102 8.24219 13.4926 8.25404 12.4306 8.30145C11.4469 8.34648 10.9136 8.51004 10.5604 8.64752C10.0887 8.83004 9.75448 9.05048 9.4013 9.4013C9.04811 9.75448 8.83004 10.0911 8.64752 10.5604C8.51004 10.916 8.34648 11.4493 8.30145 12.4306C8.25167 13.4926 8.24219 13.8126 8.24219 16.5006C8.24219 19.1886 8.25167 19.5109 8.30145 20.5729C8.34648 21.5542 8.51004 22.0875 8.64752 22.4431C8.83004 22.9124 9.04811 23.249 9.4013 23.6022C9.75448 23.953 10.0887 24.1711 10.5604 24.356C10.9136 24.4934 11.4469 24.657 12.4306 24.702C13.4926 24.7494 13.8102 24.7613 16.5006 24.7613C19.1909 24.7613 19.5086 24.7494 20.5705 24.702C21.5542 24.657 22.0875 24.4934 22.4431 24.356C22.9124 24.1711 23.249 23.953 23.5998 23.6022C23.953 23.249 24.1711 22.9124 24.3536 22.4431C24.4911 22.0875 24.657 21.5542 24.702 20.5729C24.7494 19.5109 24.7589 19.1909 24.7589 16.5006C24.7589 13.8102 24.7494 13.4926 24.702 12.4306ZM16.5006 21.6751C13.6443 21.6751 11.3284 19.3592 11.3284 16.5006C11.3284 13.6419 13.6443 11.3284 16.5006 11.3284C19.3569 11.3284 21.6751 13.6443 21.6751 16.5006C21.6751 19.3569 19.3569 21.6751 16.5006 21.6751ZM21.8789 12.3334C21.2105 12.3334 20.67 11.7906 20.67 11.1246C20.67 10.4585 21.2105 9.91567 21.8789 9.91567C22.5474 9.91567 23.0878 10.4561 23.0878 11.1246C23.0878 11.793 22.545 12.3334 21.8789 12.3334ZM16.5006 13.1441C14.6469 13.1441 13.1417 14.6469 13.1417 16.5006C13.1417 18.3542 14.6469 19.8594 16.5006 19.8594C18.3542 19.8594 19.8594 18.3566 19.8594 16.5006C19.8594 14.6446 18.3566 13.1441 16.5006 13.1441Z" fill="currentColor"/>
<path d="M16.5 0.5C7.66326 0.5 0.5 7.66563 0.5 16.5C0.5 25.3344 7.66326 32.5 16.5 32.5C25.3367 32.5 32.5 25.3367 32.5 16.5C32.5 7.66326 25.3367 0.5 16.5 0.5ZM26.5148 20.6553C26.465 21.7267 26.2944 22.4591 26.0455 23.0991C25.7871 23.7628 25.4434 24.3246 24.884 24.884C24.3246 25.4434 23.7628 25.7895 23.0991 26.0455C22.4591 26.2944 21.7267 26.465 20.6529 26.5148C19.5791 26.5646 19.2354 26.5741 16.5 26.5741C13.7646 26.5741 13.4209 26.5646 12.3471 26.5148C11.2733 26.465 10.5433 26.2944 9.90089 26.0455C9.23956 25.7895 8.67778 25.4434 8.116 24.884C7.55659 24.3246 7.21289 23.7628 6.95452 23.0991C6.70563 22.4591 6.53496 21.7267 6.48756 20.6553C6.43778 19.5791 6.42593 19.2378 6.42593 16.5C6.42593 13.7622 6.43778 13.4209 6.48756 12.3471C6.53496 11.2757 6.70563 10.5433 6.95452 9.90326C7.21289 9.23955 7.55659 8.67778 8.116 8.11837C8.67541 7.55896 9.23956 7.21289 9.90089 6.95689C10.5433 6.70563 11.2733 6.53733 12.3471 6.48756C13.4209 6.43778 13.7646 6.42593 16.5 6.42593C19.2354 6.42593 19.5791 6.43778 20.6529 6.48756C21.7267 6.53733 22.4591 6.70563 23.0991 6.95689C23.7628 7.21289 24.3246 7.55659 24.884 8.11837C25.4434 8.67778 25.7871 9.23955 26.0455 9.90326C26.2944 10.5433 26.465 11.2757 26.5148 12.3471C26.5622 13.4209 26.5741 13.7646 26.5741 16.5C26.5741 19.2354 26.5622 19.5791 26.5148 20.6553Z" fill="currentColor"/>
</g>
<defs>
<clipPath id="clip0_822_116694">
<rect width="32" height="32" fill="currentColor" transform="translate(0.5 0.5)"/>
</clipPath>
</defs>
</svg>
