<svg width="33" height="33" viewBox="0 0 33 33" fill="currentColor" xmlns="http://www.w3.org/2000/svg">
<path d="M32.4993 16.5969C32.4989 13.5206 31.6226 10.5088 29.9742 7.91806C28.3258 5.32731 25.9744 3.26608 23.1982 1.97835C20.4219 0.690618 17.3372 0.230312 14.3092 0.651916C11.2811 1.07352 8.43644 2.35938 6.11195 4.35729C3.78745 6.3552 2.08043 8.98151 1.19294 11.9253C0.305452 14.8692 0.274661 18.0072 1.10421 20.9681C1.93376 23.929 3.58892 26.5887 5.87376 28.6325C8.1586 30.6762 10.9775 32.0183 13.9967 32.5V21.2508H9.93531V16.5969H13.9967V13.05C13.9967 9.01014 16.3846 6.78592 20.0388 6.78592C21.2384 6.80257 22.4352 6.9075 23.6196 7.09988V11.0624H21.6033C21.2596 11.0165 20.91 11.049 20.5805 11.1575C20.251 11.2659 19.9499 11.4476 19.6996 11.689C19.4492 11.9304 19.256 12.2253 19.1343 12.552C19.0126 12.8787 18.9654 13.2288 18.9962 13.5763V16.5958H23.4384L22.7296 21.2497H19.002V32.5C22.7646 31.9001 26.1912 29.9689 28.6653 27.0538C31.1395 24.1386 32.499 20.4307 32.4993 16.5969V16.5969Z" fill="currentColor"/>
</svg>
