<svg width="32" height="33" viewBox="0 0 32 33" fill="currentColor" xmlns="http://www.w3.org/2000/svg">
<g clip-path="url(#clip0_10150_1793)">
<path d="M15.9998 13.5908V19.7872H24.6106C24.2325 21.7799 23.0978 23.4673 21.3961 24.6018L26.5888 28.6309C29.6142 25.8383 31.3597 21.7364 31.3597 16.8637C31.3597 15.7292 31.2579 14.6382 31.0687 13.591L15.9998 13.5908Z" fill="currentColor"/>
<path d="M7.03298 19.5454L5.86183 20.4419L1.71631 23.671C4.34903 28.8927 9.74499 32.5001 15.9995 32.5001C20.3194 32.5001 23.9411 31.0746 26.5885 28.631L21.3958 24.6019C19.9703 25.5619 18.1521 26.1438 15.9995 26.1438C11.8395 26.1438 8.30507 23.3365 7.03952 19.5546L7.03298 19.5454Z" fill="currentColor"/>
<path d="M1.71624 9.3291C0.625389 11.4817 0 13.9109 0 16.4999C0 19.089 0.625389 21.5181 1.71624 23.6707C1.71624 23.6852 7.03997 19.5398 7.03997 19.5398C6.71997 18.5798 6.53082 17.5617 6.53082 16.4997C6.53082 15.4378 6.71997 14.4197 7.03997 13.4597L1.71624 9.3291Z" fill="currentColor"/>
<path d="M15.9998 6.8709C18.3562 6.8709 20.4507 7.68543 22.1235 9.25636L26.7052 4.6746C23.927 2.08555 20.3199 0.5 15.9998 0.5C9.74532 0.5 4.34903 4.09272 1.71631 9.3291L7.03987 13.46C8.30525 9.67816 11.8398 6.8709 15.9998 6.8709Z" fill="currentColor"/>
</g>
<defs>
<clipPath id="clip0_10150_1793">
<rect width="32" height="32" fill="currentColor" transform="translate(0 0.5)"/>
</clipPath>
</defs>
</svg>
