<svg width="25" height="25" viewBox="0 0 25 25" fill="none" xmlns="http://www.w3.org/2000/svg">
<path d="M19.6001 9.5L20.8501 6.75L23.6001 5.5L20.8501 4.25L19.6001 1.5L18.3501 4.25L15.6001 5.5L18.3501 6.75L19.6001 9.5ZM19.6001 15.5L18.3501 18.25L15.6001 19.5L18.3501 20.75L19.6001 23.5L20.8501 20.75L23.6001 19.5L20.8501 18.25L19.6001 15.5ZM12.1001 10L9.6001 4.5L7.1001 10L1.6001 12.5L7.1001 15L9.6001 20.5L12.1001 15L17.6001 12.5L12.1001 10ZM10.5901 13.49L9.6001 15.67L8.6101 13.49L6.4301 12.5L8.6101 11.51L9.6001 9.33L10.5901 11.51L12.7701 12.5L10.5901 13.49Z" fill="currentColor"/>
</svg>
