<svg width="25" height="25" viewBox="0 0 25 25" fill="none" xmlns="http://www.w3.org/2000/svg">
<circle cx="13.0002" cy="17" r="3" fill="black"/>
<path d="M17.64 15.02C17.38 14.83 17.02 14.39 16.85 14.18C18.04 12.51 19.8 9.37 19.8 5.5C19.8 3.55 19.06 2.5 17.8 2.5C16.26 2.5 13.84 4.56 12.8 8.47C11.76 4.56 9.34005 2.5 7.80005 2.5C6.54005 2.5 5.80005 3.55 5.80005 5.5C5.80005 9.37 7.56005 12.51 8.75005 14.18C8.58005 14.39 8.22005 14.83 7.96005 15.02C7.46005 15.43 6.30005 16.39 6.30005 18C6.30005 20.21 8.09005 22 10.3 22C11.85 22 12.8 21.44 12.8 21.44C12.8 21.44 13.75 22 15.3 22C17.51 22 19.3 20.21 19.3 18C19.3 16.39 18.14 15.43 17.64 15.02ZM10.15 12.7C9.14005 11.2 7.80005 8.62 7.80005 5.5C7.80005 5.01 7.86005 4.7 7.92005 4.53C8.86005 4.84 11.16 7.24 11.3 12.17C10.83 12.29 10.46 12.47 10.15 12.7ZM11.3 17.25C11.02 17.25 10.8 16.91 10.8 16.5C10.8 16.09 11.02 15.75 11.3 15.75C11.58 15.75 11.8 16.09 11.8 16.5C11.8 16.91 11.58 17.25 11.3 17.25ZM12.8 20C12.25 20 11.8 19.28 11.8 19C11.8 18.72 12.25 18.5 12.8 18.5C13.35 18.5 13.8 18.72 13.8 19C13.8 19.28 13.35 20 12.8 20ZM14.3 17.25C14.02 17.25 13.8 16.91 13.8 16.5C13.8 16.09 14.02 15.75 14.3 15.75C14.58 15.75 14.8 16.09 14.8 16.5C14.8 16.91 14.58 17.25 14.3 17.25ZM14.3 12.17C14.44 7.24 16.74 4.84 17.68 4.53C17.74 4.7 17.8 5.01 17.8 5.5C17.8 8.62 16.46 11.2 15.45 12.7C15.14 12.47 14.77 12.29 14.3 12.17Z" fill="currentColor"/>
</svg>
