<svg width="15" height="20" viewBox="0 0 15 20" fill="currentColor" xmlns="http://www.w3.org/2000/svg">
<path d="M12.64 13.02C12.38 12.83 12.02 12.39 11.85 12.18C13.04 10.51 14.8 7.37 14.8 3.5C14.8 1.55 14.06 0.5 12.8 0.5C11.26 0.5 8.83999 2.56 7.79999 6.47C6.75999 2.56 4.33999 0.5 2.79999 0.5C1.53999 0.5 0.799988 1.55 0.799988 3.5C0.799988 7.37 2.55999 10.51 3.74999 12.18C3.57999 12.39 3.21999 12.83 2.95999 13.02C2.45999 13.43 1.29999 14.39 1.29999 16C1.29999 18.21 3.08999 20 5.29999 20C6.84999 20 7.79999 19.44 7.79999 19.44C7.79999 19.44 8.74999 20 10.3 20C12.51 20 14.3 18.21 14.3 16C14.3 14.39 13.14 13.43 12.64 13.02ZM5.14999 10.7C4.13999 9.2 2.79999 6.62 2.79999 3.5C2.79999 3.01 2.85999 2.7 2.91999 2.53C3.85999 2.84 6.15999 5.24 6.29999 10.17C5.82999 10.29 5.45999 10.47 5.14999 10.7ZM6.29999 15.25C6.01999 15.25 5.79999 14.91 5.79999 14.5C5.79999 14.09 6.01999 13.75 6.29999 13.75C6.57999 13.75 6.79999 14.09 6.79999 14.5C6.79999 14.91 6.57999 15.25 6.29999 15.25ZM7.79999 18C7.24999 18 6.79999 17.28 6.79999 17C6.79999 16.72 7.24999 16.5 7.79999 16.5C8.34999 16.5 8.79999 16.72 8.79999 17C8.79999 17.28 8.34999 18 7.79999 18ZM9.29999 15.25C9.01999 15.25 8.79999 14.91 8.79999 14.5C8.79999 14.09 9.01999 13.75 9.29999 13.75C9.57999 13.75 9.79999 14.09 9.79999 14.5C9.79999 14.91 9.57999 15.25 9.29999 15.25ZM9.29999 10.17C9.43999 5.24 11.74 2.84 12.68 2.53C12.74 2.7 12.8 3.01 12.8 3.5C12.8 6.62 11.46 9.2 10.45 10.7C10.14 10.47 9.76999 10.29 9.29999 10.17Z" fill="currentColor"/>
</svg>
