<svg width="32" height="32" viewBox="0 0 32 32" fill="none" xmlns="http://www.w3.org/2000/svg">
<path d="M28 9.70667V6.66667C28 5.2 26.8 4 25.3333 4H6.66667C5.95942 4 5.28115 4.28095 4.78105 4.78105C4.28095 5.28115 4 5.95942 4 6.66667V25.3333C4 26.0406 4.28095 26.7189 4.78105 27.219C5.28115 27.719 5.95942 28 6.66667 28H25.3333C26.8 28 28 26.8 28 25.3333V22.2933C28.403 22.0607 28.7382 21.7265 28.9721 21.3242C29.206 20.9219 29.3305 20.4654 29.3333 20V12C29.3305 11.5346 29.206 11.0781 28.9721 10.6758C28.7382 10.2735 28.403 9.93935 28 9.70667ZM26.6667 12V20H17.3333V12H26.6667ZM6.66667 25.3333V6.66667H25.3333V9.33333H17.3333C15.8667 9.33333 14.6667 10.5333 14.6667 12V20C14.6667 21.4667 15.8667 22.6667 17.3333 22.6667H25.3333V25.3333H6.66667Z" fill="currentColor"/>
<path d="M21.3333 18C22.4378 18 23.3333 17.1046 23.3333 16C23.3333 14.8954 22.4378 14 21.3333 14C20.2287 14 19.3333 14.8954 19.3333 16C19.3333 17.1046 20.2287 18 21.3333 18Z" fill="currentColor"/>
</svg>
